<svg id="Group_12" data-name="Group 12" xmlns="http://www.w3.org/2000/svg" width="108.3" height="43.08" viewBox="0 0 108.3 43.08">
  <path id="Path_23" data-name="Path 23" d="M262.434,1784.31l22.025-43.067,22.02,43.067c-3.344,0-6.4.052-9.457-.055-.466-.016-1.068-.688-1.334-1.2-3.425-6.583-6.8-13.193-10.19-19.793-.3-.587-.645-1.155-1.069-1.908-1.962,3.8-3.842,7.43-5.715,11.067s-3.73,7.3-5.647,10.927a1.8,1.8,0,0,1-1.193.92C268.82,1784.346,265.761,1784.31,262.434,1784.31Z" transform="translate(-262.434 -1741.242)" fill="#9d9d9d"/>
  <path id="Path_24" data-name="Path 24" d="M554.882,1772.21v29.3H547.9V1766.4h19.168v5.805Z" transform="translate(-458.844 -1758.554)" fill="#9d9d9d"/>
  <path id="Path_25" data-name="Path 25" d="M500.379,1766.39v35.133H493.5V1772.3H481.533v-5.911Z" transform="translate(-413.18 -1758.545)" fill="#9d9d9d"/>
  <path id="Path_26" data-name="Path 26" d="M424.238,1784.531h-6.8v-42.9h6.8Z" transform="translate(-369.08 -1741.509)" fill="#9d9d9d"/>
  <path id="Path_27" data-name="Path 27" d="M445.439,1741.618h6.83v42.823h-6.83Z" transform="translate(-388.346 -1741.501)" fill="#9d9d9d"/>
  <path id="Path_28" data-name="Path 28" d="M521.446,1741.7v5.728H481.484V1741.7Z" transform="translate(-413.146 -1741.556)" fill="#9d9d9d"/>
</svg>
