<svg id="Group_396" data-name="Group 396" xmlns="http://www.w3.org/2000/svg" width="111.241" height="47.516" viewBox="0 0 111.241 47.516">
  <path id="Path_3865" data-name="Path 3865" d="M79.837,103.95l-19.365,38L55.6,151.466H66.976l4.329-8.454,8.533-16.731,8.534,16.733,4.328,8.453h11.374l-4.87-9.512Z" transform="translate(-55.602 -103.95)" fill="#9d9d9d"/>
  <g id="Group_394" data-name="Group 394" transform="translate(51.617 1.4)">
    <rect id="Rectangle_1521" data-name="Rectangle 1521" width="3.872" height="46.116" transform="translate(6.276 0)" fill="#9d9d9d"/>
    <rect id="Rectangle_1522" data-name="Rectangle 1522" width="3.872" height="46.116" transform="translate(0 0)" fill="#9d9d9d"/>
  </g>
  <g id="Group_395" data-name="Group 395" transform="translate(65.126 1.401)">
    <path id="Path_3866" data-name="Path 3866" d="M196.657,148.309H177.481a19.176,19.176,0,1,1,0-38.352h23.057v-3.882H177.481a23.058,23.058,0,1,0,0,46.115h23.057v-3.882Z" transform="translate(-154.423 -106.075)" fill="#9d9d9d"/>
    <path id="Path_3867" data-name="Path 3867" d="M180.723,119.457H203.78v-3.9H199.9v.015H180.723a16.792,16.792,0,1,0,0,33.583h18.8v-.008h4.253v-3.874H180.723a12.91,12.91,0,1,1,0-25.82Z" transform="translate(-157.665 -109.309)" fill="#9d9d9d"/>
  </g>
</svg>
