<svg xmlns="http://www.w3.org/2000/svg" width="48.703" height="67.072" viewBox="0 0 48.703 67.072">
  <g id="Group_9" data-name="Group 9" transform="translate(0)">
    <g id="Group_8" data-name="Group 8" transform="translate(0 0)">
      <g id="Group_7" data-name="Group 7">
        <path id="Path_5" data-name="Path 5" d="M194.766,154.918a4.006,4.006,0,0,1,2.957-2.155v-.074H183.194v.074a4.134,4.134,0,0,1,2.957,1.934,8.389,8.389,0,0,1,1.058,4.565v.074h.074l-.074,21.54q0,11.245,6.8,16.1,1.014-2.745,2.012-5.48l0-.277,0-.013q-2.471-4.182-2.467-11.572V161.014A14.013,14.013,0,0,1,194.766,154.918Zm25.009-2.155v.074a4.12,4.12,0,0,1,2.957,1.934,8.389,8.389,0,0,1,1.058,4.565l.074,21.319q0,16.578-14.382,16.576A27.19,27.19,0,0,1,205.8,197l-1.344,3.486q1.8.176,3.781.178,9.931,0,15.189-5.476,5.112-5.326,4.527-15.114l-.074-20.734a8.387,8.387,0,0,1,1.062-4.565,4.112,4.112,0,0,1,2.957-1.934v-.074Z" transform="translate(-183.194 -152.689)" fill="#9d9d9d"/>
      </g>
    </g>
    <text id="UNILEAD" transform="translate(0 65.072)" fill="#9d9d9d" font-size="8" font-family="SegoeUI, Segoe UI"><tspan x="0" y="0">UNILEAD</tspan></text>
    <path id="Path_6" data-name="Path 6" d="M232.534,225.979c-.078.217-.126.386-.2.537q-2.628,5.593-5.255,11.191a.715.715,0,0,1-.737.521q-20.161-.02-40.331-.013c-.108,0-.217-.017-.412-.03.321-.824.6-1.622.954-2.389.074-.16.425-.243.655-.273,1.691-.191,3.391-.308,5.073-.555a4.894,4.894,0,0,0,1.769-.763,2.057,2.057,0,0,0,.75-.984q2.445-6.51,4.826-13.046a1.559,1.559,0,0,0,.078-.46l3.486-9.266c.126-.308.23-.537.317-.776q1.327-3.7,2.645-7.4c.564-1.565.113-2.276-1.544-2.458-.265-.026-.529-.065-.889-.108.308-.841.581-1.635.9-2.415a.531.531,0,0,1,.42-.226q7.2,0,14.4.026c.022,0,.039.017.156.078-.3.789-.59,1.6-.928,2.389-.052.117-.338.16-.525.191-.863.134-1.739.2-2.584.395a2.806,2.806,0,0,0-2.081,1.912c-2.016,5.558-4.063,11.108-6.079,16.667a.984.984,0,0,0-.052.264l0,0-3.52,9.135c-.945,2.515-1.839,4.9-2.762,7.375.291.013.525.035.755.035,5.814,0,11.628-.022,17.439.017a7.643,7.643,0,0,0,5.636-2.281,21.417,21.417,0,0,0,4.336-6.595,1,1,0,0,1,1.154-.711C231.068,226.023,231.767,225.979,232.534,225.979Z" transform="translate(-184.715 -180.763)" fill="#9d9d9d"/>
  </g>
</svg>
