<svg xmlns="http://www.w3.org/2000/svg" width="48.721" height="66.999" viewBox="0 0 48.721 66.999">
  <g id="Group_393" data-name="Group 393" transform="translate(0)">
    <path id="Path_3864" data-name="Path 3864" d="M646.484,329.252a8.085,8.085,0,0,0-1.664-2.488,7.96,7.96,0,0,0-2.47-1.7,7.372,7.372,0,0,0-3.031-.631h-5.3V315.81a8.287,8.287,0,0,0-.671-3.319,8.861,8.861,0,0,0-1.82-2.724,8.452,8.452,0,0,0-2.7-1.841,8.268,8.268,0,0,0-3.315-.671H606.884a9.1,9.1,0,0,0-3.6.671,7.763,7.763,0,0,0-2.663,1.841,8.019,8.019,0,0,0-1.667,2.724,9.484,9.484,0,0,0-.575,3.319v37.4a8.27,8.27,0,0,0,.672,3.319,8.849,8.849,0,0,0,1.822,2.724,8.716,8.716,0,0,0,2.7,1.86,8.076,8.076,0,0,0,3.318.691h7.656v4.634a7.565,7.565,0,0,0,.613,3.031,8.1,8.1,0,0,0,1.662,2.487,7.717,7.717,0,0,0,2.467,1.682,7.556,7.556,0,0,0,3.027.613h17.008a8.318,8.318,0,0,0,3.29-.613,7.086,7.086,0,0,0,2.432-1.682,7.324,7.324,0,0,0,1.522-2.487,8.657,8.657,0,0,0,.525-3.031V332.282A7.556,7.556,0,0,0,646.484,329.252ZM608.83,358.009a5.8,5.8,0,0,1-1.477-2.647,15.168,15.168,0,0,1-.46-4.028V317.69a15.129,15.129,0,0,1,.46-4.047,5.358,5.358,0,0,1,4.163-4.047,16.915,16.915,0,0,1,4.086-.422h2.57a12.643,12.643,0,0,1,5.39,1.132,13.574,13.574,0,0,1,4.22,3.031,14.848,14.848,0,0,1,2.858,4.45,17.8,17.8,0,0,1,1.248,6.649H621.066a7.375,7.375,0,0,0-3.031.631,7.962,7.962,0,0,0-2.47,1.7,8.086,8.086,0,0,0-1.664,2.488,7.565,7.565,0,0,0-.613,3.031v11.6a7.563,7.563,0,0,0,.193,1.945,1.7,1.7,0,0,0,.666,1,2.716,2.716,0,0,0,1.279.385q.806.07,2,.07h9.535v4.057a15.169,15.169,0,0,1-.461,4.028,5.63,5.63,0,0,1-1.515,2.647,6.176,6.176,0,0,1-2.724,1.439,16.219,16.219,0,0,1-4.086.441H615.6a16.217,16.217,0,0,1-4.086-.441A5.889,5.889,0,0,1,608.83,358.009Zm18.127-12.484H621v-6.813h5.961Zm12.362,19.2a13.815,13.815,0,0,1-.42,3.7,4.894,4.894,0,0,1-3.8,3.7,15.457,15.457,0,0,1-3.731.385h-2.347a11.551,11.551,0,0,1-4.923-1.034,12.394,12.394,0,0,1-3.854-2.768,13.554,13.554,0,0,1-2.61-4.064,15.577,15.577,0,0,1-.873-2.83H626.88a8.077,8.077,0,0,0,3.318-.691,8.712,8.712,0,0,0,2.7-1.86,8.86,8.86,0,0,0,1.822-2.724,8.286,8.286,0,0,0,.671-3.319v-12.7a8.3,8.3,0,0,0-.211-2.129,1.858,1.858,0,0,0-.729-1.093,2.972,2.972,0,0,0-1.4-.422q-.883-.076-2.187-.077H621V334a13.862,13.862,0,0,1,.421-3.678A5.139,5.139,0,0,1,622.8,327.9a5.637,5.637,0,0,1,2.488-1.314,14.8,14.8,0,0,1,3.731-.4h2.347a14.8,14.8,0,0,1,3.731.4,5.377,5.377,0,0,1,2.453,1.314,5.292,5.292,0,0,1,1.349,2.417,13.85,13.85,0,0,1,.42,3.678Z" transform="translate(-598.376 -307.255)" fill="#9d9d9d"/>
  </g>
</svg>
