<svg xmlns="http://www.w3.org/2000/svg" width="83.766" height="38.908" viewBox="0 0 83.766 38.908">
  <g id="Group_87" data-name="Group 87" transform="translate(-267.112 -362.277)">
    <text id="ASSISTANT" transform="translate(294.878 374.277)" fill="#f89941" font-size="11" font-family="SegoeUI, Segoe UI" letter-spacing="0.021em"><tspan x="0" y="0">ASSISTANT</tspan></text>
    <text id="KIDS" transform="translate(292.849 395.186)" fill="#d31772" font-size="22" font-family="SegoeUI, Segoe UI"><tspan x="0" y="0">KIDS</tspan></text>
    <g id="Group_86" data-name="Group 86" transform="translate(267.112 365.737)">
      <g id="Group_85" data-name="Group 85">
        <path id="Path_299" data-name="Path 299" d="M359.824,376.439l.8,1.841c.018,0,.057,0,.069-.016.329-.444.45-.465.778.011a6.531,6.531,0,0,1,.663,1.274c.139.349-.006.639-.486.718l.092.125.475.03c.231.382.476.746.678,1.133.379.725.725,1.468,1.1,2.194a7.329,7.329,0,0,1,.521.873,3.4,3.4,0,0,1,.057.888,2.976,2.976,0,0,0,.055.533c.165.672.168.662-.485.89-.387.135-.756.325-1.148.436-.1.03-.31-.109-.39-.225a12.4,12.4,0,0,1-.773-1.241,1.3,1.3,0,0,1-.063-1.443.7.7,0,0,0-.3-1.028,1.985,1.985,0,0,1-1.068-1.4c-.082-.345-.167-.69-.244-1.037-.059-.268-.127-.307-.469-.19-.2-.5-.4-1-.606-1.5-.036-.087-.059-.216-.125-.248-.283-.135-.255-.387-.289-.629-.021-.148-.1-.288-.127-.436a1.219,1.219,0,0,1-.01-.362c.021-.189.282-.347.073-.573a.274.274,0,0,1,.107-.158C359.072,376.715,359.317,376.253,359.824,376.439Z" transform="translate(-347.51 -376.396)" fill="#d31772"/>
        <path id="Path_300" data-name="Path 300" d="M306.283,394.95a7.3,7.3,0,0,1-1.1.413c-.29.062-.276.19-.246.433l1.539-.648.044.076c-.026.039-.051.079-.08.116-.27.355-.224.506.194.646a.943.943,0,0,1,.374.157,1.643,1.643,0,0,1,.211.453c-.06,0-.01-.007.037,0a1.345,1.345,0,0,1,.17.067l-.309.429.47.483-.066.154.312-.065a.978.978,0,0,0,.107.264,1.194,1.194,0,0,0,.256.184l-.292.176-.223-.3c-.573.633-.573.633-.6.811a2.315,2.315,0,0,0-.212.292,1.6,1.6,0,0,0-.091.3c-.075-.062-.153-.121-.226-.186-.229-.205-.461-.407-.682-.621a1.634,1.634,0,0,1-.206-.284c-.155-.235-.317-.465-.454-.71a2.4,2.4,0,0,1-.092-.364.616.616,0,0,0-.157-.29c-.272-.2-.214-.445-.152-.708a2.454,2.454,0,0,0,.031-.382c-.121.033-.242.068-.363.1a.665.665,0,0,1-.109.015l.083-.452-.381-.047.142-.3h-.693l.2-.336h-.256l.437-1.36-.346-.405-.972.364a4.525,4.525,0,0,1-.529-.255.654.654,0,0,1-.252-.293,1.656,1.656,0,0,0-.827-1.063c-.013-.006-.03-.009-.037-.019a2.686,2.686,0,0,1-.814-2.12.725.725,0,0,1,.2-.4.367.367,0,0,1,.362.011c.2.227.289.273.471-.043.366-.634.7-.621,1.242-.143a10.057,10.057,0,0,1,1.585,2.358c.109.167-.041.5-.155.755.013.024.026.068.038.068.612-.018.869.412,1.149.857.252.4.586.749.868,1.132C306.017,394.457,306.12,394.673,306.283,394.95Z" transform="translate(-296.116 -387.263)" fill="#d31772"/>
        <path id="Path_301" data-name="Path 301" d="M279.107,575.8c.154-.09.351-.214.558-.318.034-.017.158.051.158.081a.368.368,0,0,1-.069.249c-.228.224-.146.382.086.413.171,0,.373-.057.507.014a1.347,1.347,0,0,1,.411.434,1.072,1.072,0,0,0,.83.362c.046.436.245.9-.307,1.22l-.066-.332c-.264.193-.506.412-.829.14-.031-.027-.248.17-.381.26-.348.236-.685.491-1.05.7a1,1,0,0,1-.5.026.967.967,0,0,1-.34-.1c-.3-.12-.6-.247-.908-.358-.33-.119-.707-.14-.888-.527-.036-.078-.191-.1-.284-.153-.576-.346-1.148-.7-1.726-1.04a1.184,1.184,0,0,0-.371-.129c-.44-.086-.568-.424-.289-.783a2.484,2.484,0,0,1,3.015-1.046,7.685,7.685,0,0,1,1.288.713,1.145,1.145,0,0,0,.379.1C278.566,575.746,278.8,575.766,279.107,575.8Z" transform="translate(-272.73 -550.852)" fill="#d31772"/>
        <g id="Group_84" data-name="Group 84" transform="translate(0 3.302)">
          <path id="Path_302" data-name="Path 302" d="M276.405,416.728c-.03.138-.062.276-.089.414a2.744,2.744,0,0,0-.182,1.065,2.623,2.623,0,0,0,1.269,1.824l1.335-.431,11.466-3.725-.495-.8.289-.516-.679.252-.054-.124.784-.337a2.42,2.42,0,0,0-1.144-1.87c.59-.3.59-.341.484-.957a1.845,1.845,0,0,1,.143-1.519.766.766,0,0,0,.1-.477c-.03-.366.211-.57.412-.806a.9.9,0,0,0,.219-.333c.127-.55.245-1.1.329-1.66.02-.135-.115-.289-.154-.44-.029-.112-.053-.325-.016-.34.545-.227.393-.726.46-1.135a1.383,1.383,0,0,0-.006-.29c-.026-.479-.142-.547-.6-.349-.122-.2-.2-.649-.489-.114-.007.012-.018.035-.021.034-.536-.188-.665.374-1,.552a.822.822,0,0,0-.23,1.2.569.569,0,0,1,.075.7,1.128,1.128,0,0,0-.082.754.891.891,0,0,1-.071.854.719.719,0,0,0-.057.306l-.588.243c.427.6.425.868.023,1.867.658.328.279,1.161.784,1.6l-.372.347.211.245-.042.1-.421-.13c-.4.71-.457.736-1.25.438-.3-.111-.676-.06-.859-.427-.022-.045-.214.02-.3-.022-.618-.3-1.258-.051-1.886-.081-.05,0-.1.119-.161.16a.5.5,0,0,1-.158.055c-.014-.22.037-.458-.055-.609-.1-.166-.334-.253-.509-.374l-.1.123.491.653a1.255,1.255,0,0,1-.193.134,1.7,1.7,0,0,0-.294.1c-.41.3-.8.631-1.219.928a.427.427,0,0,1-.328-.007,1.308,1.308,0,0,0-1.171.366,1.09,1.09,0,0,1-.3.227c-.57.332-1.154.642-1.714.99s-1.081.725-1.585,1.067a4.694,4.694,0,0,1-.494-.252.362.362,0,0,1-.145-.233c-.03-.269-.019-.544-.052-.812a3.288,3.288,0,0,0-.142-.426,4.16,4.16,0,0,0-.27-.809l.015.335-.1.067c-.17-.719-.5-1.254-1.272-1.31-.22-.295-.445-.6-.674-.9-.109-.142-.137-.372-.442-.281-.083.025-.241-.278-.393-.393s-.382-.181-.538-.313a7.769,7.769,0,0,1-.6-.628l-.223.2a2.478,2.478,0,0,0-.089-.836,2.414,2.414,0,0,0-.6-.614c-.319-.286-.647-.564-.977-.839a1.521,1.521,0,0,0-.25-.141c-.333.553-.9.536-1.48-.032-.844.779-.625,1.278-.113,2.051A5.846,5.846,0,0,0,269.5,411.7c.145.1.431-.019.672-.038.357.28.423,1.043,1.236.855l-.034.2a.65.65,0,0,1,.555.831c.533.566,1.325.878,1.442,1.782.043.336.41.456.694.179l-.074.51.554.241h.58l-.176.41c.362,0,.691-.005,1.02,0C276.118,416.681,276.261,416.71,276.405,416.728Z" transform="translate(-267.112 -403.802)" fill="#d31772"/>
          <path id="Path_303" data-name="Path 303" d="M351,543.858l.931-2.885,2.244-6.914-6.914,2.244-2.08.671a7.429,7.429,0,0,0,.056,1.1l.136.384-.486.594.047.06.33-.1c-.215.358.026.307.2.323.132.218-.655.945-1.179,1.393a2.112,2.112,0,0,0-.443.367c-.07.075-.169.242-.148.264.3.313-.049.533-.073.873l-.5-.483.043-.062-.267-.46c-.215-.056-.386-.035-.26.383a3.733,3.733,0,0,1,.062.849,4,4,0,0,1,1.278.976,1.89,1.89,0,0,0,1.3.565,6.328,6.328,0,0,1,2.171.591,16.839,16.839,0,0,0,1.973.635c.166.045.375-.07.564-.114a1.056,1.056,0,0,0,.109-.037l.162.326,1.188-.4.48.112.246-.088Z" transform="translate(-333.496 -518.367)" fill="#d31772"/>
          <path id="Path_304" data-name="Path 304" d="M438.8,525.667v-.3a.821.821,0,0,1-.08.059l.076-2.261h0v-1.8l-.681-1.59.245-.1-.159-.048c-.049-.161-.115-.322-.161-.483l-3.524,10.848-.458,1.42.169-.049a2.017,2.017,0,0,1,.552-.306c.543-.1.974-.539,1.626-.376a1.336,1.336,0,0,0,1.5-.341c.051-.063.106-.124.162-.183h-.118l.5-2.06.283.552c0-.434.014-.868.047-1.3.006-.084.014-.169.022-.253s.014-.15.022-.225.017-.15.027-.224c.031-.251.067-.5.112-.752A.232.232,0,0,1,438.8,525.667Z" transform="translate(-413.953 -505.251)" fill="#d31772"/>
        </g>
      </g>
    </g>
  </g>
</svg>
